<?xml version="1.0" standalone="no"?>
<!DOCTYPE svg PUBLIC "-//W3C//DTD SVG 20010904//EN"
 "http://www.w3.org/TR/2001/REC-SVG-20010904/DTD/svg10.dtd">
<svg version="1.0" xmlns="http://www.w3.org/2000/svg"
 width="512.000000pt" height="458.000000pt" viewBox="0 0 512.000000 458.000000"
 preserveAspectRatio="xMidYMid meet">

<g transform="translate(0.000000,458.000000) scale(0.100000,-0.100000)"
fill="#000000" stroke="none">
<path d="M3480 4555 c-199 -33 -377 -105 -535 -217 -49 -34 -163 -134 -252
-222 l-163 -159 -100 97 c-338 323 -565 447 -904 492 -154 21 -368 14 -511
-16 -537 -113 -922 -511 -999 -1032 -71 -478 115 -1014 536 -1539 216 -271
474 -533 968 -985 243 -223 561 -525 962 -912 l57 -55 587 579 c919 906 1282
1270 1390 1394 424 486 582 795 601 1175 32 631 -444 1226 -1103 1381 -138 32
-399 42 -534 19z m428 -281 c377 -67 721 -345 863 -699 95 -238 91 -517 -10
-762 -73 -177 -236 -408 -487 -689 -139 -156 -1721 -1724 -1739 -1724 -4 0
-128 117 -277 260 -148 144 -402 382 -564 531 -374 343 -516 480 -677 654
-406 438 -634 819 -714 1195 -13 64 -18 129 -18 260 0 152 3 186 23 259 86
314 302 544 618 657 127 46 241 64 394 64 206 0 354 -34 522 -121 147 -77 314
-216 578 -483 l115 -116 235 238 c259 263 327 319 475 392 204 100 417 127
663 84z"/>
</g>
</svg>
