
<svg xmlns="http://www.w3.org/2000/svg" width="24" height="24" fill="none" viewBox="0 0 24 24">
  <path
    stroke="#FFFFFF"
    stroke-linecap="round"
    stroke-linejoin="round"
    stroke-width="1.5"
    d="M12 20.727c-.248 0-.495-.09-.688-.27l-.01-.009C7.49 17.151 5.015 14.79 3.616 12.67 2.213 10.545 2 8.772 2 7.773c0-3.083 2.222-5.5 5.114-5.5 1.534 0 2.978.735 3.886 1.98.043.059.104.09.17.09s.127-.03.17-.09c.908-1.245 2.352-1.98 3.886-1.98 2.892 0 5.114 2.417 5.114 5.5 0 .999-.213 2.772-1.616 4.897-1.399 2.12-3.874 4.481-7.687 7.778l-.01.009c-.193.18-.44.27-.688.27Z"
  />
</svg>
