<?xml version="1.0" standalone="no"?>
<!DOCTYPE svg PUBLIC "-//W3C//DTD SVG 20010904//EN"
 "http://www.w3.org/TR/2001/REC-SVG-20010904/DTD/svg10.dtd">
<svg version="1.0" xmlns="http://www.w3.org/2000/svg"
 width="512.000000pt" height="448.000000pt" viewBox="0 0 512.000000 448.000000"
 preserveAspectRatio="xMidYMid meet">

<g transform="translate(0.000000,448.000000) scale(0.100000,-0.100000)"
fill="#000000" stroke="none">
<path d="M3665 4474 c-16 -2 -66 -9 -110 -15 -172 -23 -371 -107 -531 -223
-43 -32 -172 -151 -285 -266 l-207 -208 -83 85 c-46 46 -139 134 -207 196
-343 311 -595 417 -997 417 -175 0 -287 -17 -432 -65 -416 -139 -699 -449
-789 -865 -28 -129 -26 -388 4 -538 67 -332 231 -665 498 -1007 206 -266 527
-594 999 -1026 263 -240 454 -421 900 -851 l111 -107 290 290 c159 160 519
512 799 783 732 707 1018 1018 1236 1343 123 182 197 350 236 533 22 106 24
343 4 445 -104 526 -547 956 -1093 1060 -83 16 -287 27 -343 19z"/>
</g>
</svg>
